<svg fill="none" height="34" viewBox="0 0 109 34" width="109" xmlns="http://www.w3.org/2000/svg"><g fill="#1a2e44"><path d="m44.0652 9.21875h-2.3269v14.27325h6.6994v-2.1005h-4.3725z"/><path d="m56.6564 15.2755c-.2969-.4756-.7181-.8487-1.2652-1.1221-.5471-.272-1.0971-.4073-1.6498-.4073-.7153 0-1.3699.1324-1.9636.3973-.5938.2649-1.1027.6294-1.5282 1.0908-.4255.4628-.7563.9954-.9924 1.6007-.2361.6052-.3549 1.2403-.3549 1.9068 0 .6792.1174 1.3186.3549 1.9167.2361.5981.5669 1.1279.9924 1.5907s.9344.826 1.5282 1.0908c.5937.2649 1.2483.3973 1.9636.3973.5527 0 1.1027-.1367 1.6498-.4072.5471-.272.9683-.6451 1.2652-1.1222v1.2845h2.2068v-9.5013h-2.2068zm-.2021 4.6296c-.1358.3674-.3238.6864-.5669.9584-.2432.272-.5358.4899-.8808.6522-.3435.1638-.7252.245-1.1436.245-.4185 0-.7959-.0812-1.1338-.245-.3379-.1637-.6277-.3802-.8708-.6522-.2432-.272-.4284-.591-.557-.9584-.1287-.3674-.1923-.7547-.1923-1.162s.0636-.7946.1923-1.162c.1286-.3674.3138-.6864.557-.9584.2431-.272.5329-.4899.8708-.6522.3379-.1638.7153-.245 1.1338-.245.4184 0 .8001.0812 1.1436.245.3436.1637.6376.3802.8808.6522.2431.272.4311.591.5669.9584.1343.3674.2021.7547.2021 1.162s-.0664.7946-.2021 1.162z"/><path d="m74.59 15.2755c-.2969-.4756-.7181-.8487-1.2652-1.1221-.5471-.272-1.0971-.4073-1.6498-.4073-.7153 0-1.3699.1324-1.9636.3973-.5938.2649-1.1027.6294-1.5282 1.0908-.4255.4628-.7563.9954-.9924 1.6007-.2361.6052-.3549 1.2403-.3549 1.9068 0 .6792.1174 1.3186.3549 1.9167.2361.5981.5669 1.1279.9924 1.5907s.9344.826 1.5282 1.0908c.5937.2649 1.2483.3973 1.9636.3973.5527 0 1.1027-.1367 1.6498-.4072.5471-.272.9683-.6451 1.2652-1.1222v1.2845h2.2068v-9.5013h-2.2068zm-.2036 4.6296c-.1357.3674-.3237.6864-.5668.9584-.2432.272-.5358.4899-.8808.6522-.3435.1638-.7252.245-1.1436.245-.4185 0-.7959-.0812-1.1338-.245-.3379-.1637-.6277-.3802-.8708-.6522-.2432-.272-.4284-.591-.557-.9584-.1287-.3674-.1923-.7547-.1923-1.162s.0636-.7946.1923-1.162c.1286-.3674.3138-.6864.557-.9584.2431-.272.5329-.4899.8708-.6522.3379-.1638.7153-.245 1.1338-.245.4184 0 .8001.0812 1.1436.245.3436.1637.6376.3802.8808.6522.2431.272.4311.591.5668.9584.1343.3674.2022.7547.2022 1.162.0014.4073-.0664.7946-.2022 1.162z"/><path d="m101 9.21875h-2.207v14.27325h2.207z"/><path d="m60.6055 23.491h2.2053v-7.3154h3.7859v-2.1873h-5.9912z"/><path d="m85.6442 13.9883-2.7736 7.2769-2.7737-7.2769h-2.2336l3.6204 9.5027h2.7737l3.6204-9.5027z"/><path d="m92.6881 13.7461c-2.7015 0-4.8404 2.2372-4.8404 4.9956 0 3.0503 2.0696 4.9955 5.1232 4.9955 1.7091 0 2.8005-.6579 4.1322-2.0919l-1.49-1.162c-.0015.0014-1.1253 1.4881-2.8034 1.4881-1.9509 0-2.7722-1.585-2.7722-2.4038h7.3201c.3845-3.14-1.6654-5.8215-4.6695-5.8215zm-2.645 4.1696c.017-.1823.2714-2.4038 2.6281-2.4038 2.3566 0 2.6436 2.2215 2.6591 2.4038z"/><path d="m35.0218 9.1074c-.0029-.01282-.0099-.02421-.0142-.0356-.0085-.02279-.0155-.04557-.0268-.06551-.0085-.01424-.0198-.02563-.0283-.03845-.0127-.01709-.0226-.03418-.0368-.04984-.0127-.01282-.0268-.02136-.041-.03133-.0155-.01282-.0297-.02563-.0466-.0356l-5.0398-2.92215c-.1301-.07548-.2898-.07548-.4185 0l-5.0398 2.92215c-.0169.00997-.0311.02421-.0466.0356-.0142.01139-.0297.01994-.041.03133-.0142.01424-.0255.03275-.0368.04984-.0099.01282-.0212.02421-.0282.03845-.0114.01994-.0184.04272-.0269.06551-.0042.01139-.0113.02278-.0141.0356-.0099.0356-.0142.07262-.0142.11107v5.55093l-4.2 2.4351v-10.85976c0-.03845-.0057-.07548-.0142-.11108-.0028-.01281-.0099-.02421-.0141-.0356-.0085-.02278-.0156-.04557-.0269-.0655-.0085-.01425-.0198-.02564-.0283-.03845-.0127-.01709-.0226-.03418-.0367-.04985-.0127-.01281-.0269-.02136-.041-.03133-.0156-.01281-.0297-.02563-.0467-.0356l-5.0454-2.92072c-.1301-.07548-.2898-.07548-.4185 0l-5.03976 2.92215c-.01696.00997-.0311.02421-.04665.0356-.01414.01139-.02828.01994-.041.03133-.01414.01424-.02545.03275-.03676.04984-.00989.01282-.0212.02421-.02827.03845-.01131.01994-.01838.04272-.02686.06551-.00424.01139-.01131.02278-.01414.0356-.01131.0356-.01696.07262-.01696.10965v17.38626c0 .1509.08058.2905.21064.366l10.07816 5.8457c.0226.0128.0453.0199.0693.0285.0113.0042.0212.0099.0325.0128.0353.0099.0721.0142.1074.0142.0354 0 .0721-.0043.1075-.0142.0099-.0029.0184-.0086.0283-.0114.0254-.0086.0494-.0171.0735-.0299l10.0782-5.8457c.13-.0755.2106-.2151.2106-.366v-5.551l4.8291-2.8011c.1301-.0755.2107-.215.2107-.366v-5.79585c0-.03703-.0043-.07405-.0141-.10965zm-15.5238 14.138-4.1915-2.3896 4.4022-2.5533 4.8291-2.8011 4.1945 2.4323-3.0776 1.7701zm9.6598-10.8598v4.8189l-1.7629-1.0224-2.4358-1.4127v-4.81897l1.7629 1.02247zm.4198-5.60225 4.1973 2.4337-4.1973 2.43375-4.1972-2.43375zm-12.9352 12.32085-1.7629 1.0225v-10.61487l2.4358-1.41266 1.7629-1.02247v10.6149zm-2.1827-15.19316 4.1972 2.43512-4.1972 2.43371-4.1987-2.43513zm-4.61997 3.16566 1.76287 1.02247 2.4358 1.41266v11.34687.0014.0014c0 .0157.0042.0313.0071.047.0028.0214.0028.0413.0084.0612v.0015c.0043.017.0128.0313.0198.047.0071.017.0127.037.0226.0526v.0015c.0085.0142.0212.027.0311.0413.0114.0156.0213.0313.034.0441 0 0 0 .0014.0014.0014.0113.0114.0268.02.0396.0299.0155.0114.0282.0257.0452.0356 0 0 .0014 0 .0014.0015l.0014.0014 4.8264 2.7513v4.8659l-9.23707-5.3572zm19.31807 16.4108-9.2385 5.3572v-4.8674l6.8423-3.9346 2.3962-1.3785zm5.0384-8.7181-4.2001 2.4351v-4.8189l2.4358-1.4127 1.7628-1.02247v4.81897z"/></g></svg>