<svg fill="none" height="34" viewBox="0 0 110 34" width="110" xmlns="http://www.w3.org/2000/svg"><path d="m39.0356 8.62891v17.21899h1.8613v-12.4534c.0154-.788-.0156-1.5762-.0927-2.3599h.0709c.135.3763.3054.7379.5045 1.0759l8.1812 13.7285h2.2799v-17.21009h-1.8531v12.10659c-.0218.8456.0219 1.6913.1132 2.5296h-.0423c-.2037-.3917-.4193-.7762-.6463-1.1527l-7.9617-13.48202zm16.9312 0v17.21899h8.4581l.0068-1.8906h-6.5628v-5.9729h5.746v-1.8138h-5.746v-5.719h6.1646v-1.82122zm9.8857 0v1.82119h4.5733v15.3963h1.8613v-15.3963h4.6237v-1.82119zm-31.3902 14.75869c-.1565.0044-.3106.0428-.4533.1127-.1426.07-.2708.1702-.3771.2946-.2286.2526-.356.5925-.3545.9461-.0021.2646.0688.524.2036.7448s.3275.393.5533.4946.4745.128.7142.0757c.2398-.0523.4596-.1808.6315-.3691.2345-.2465.3695-.5918.3695-.946s-.135-.6996-.3695-.9461c-.1121-.1291-.2476-.2318-.3979-.3019-.1504-.0701-.3125-.106-.4762-.1054h-.0422z" fill="#1a2e44"/></svg>