<svg fill="none" height="33" viewBox="0 0 111 33" width="111" xmlns="http://www.w3.org/2000/svg" xmlns:xlink="http://www.w3.org/1999/xlink"><clipPath id="a"><path d="m3.10938 3.00781h104.246v26.6971h-104.246z"/></clipPath><g clip-path="url(#a)" fill="#1a2e44"><path d="m42.4143 16.5664c0-3.3649-.9112-5.0936-2.7357-5.1883-.7245-.037-1.4337.0855-2.1231.3675-.5489.2079-.9199.4113-1.1154.6193v8.0332c1.1659.7696 2.2022 1.1278 3.1046 1.0723 1.9145-.134 2.8696-1.7656 2.8696-4.904zm2.2505.1386c0 1.7102-.3821 3.1292-1.1461 4.257-.8541 1.278-2.0375 1.9343-3.5503 1.9713-1.1417.0393-2.3163-.3374-3.5239-1.1255v7.3006l-1.9562-.7349v-16.205c.3205-.4137.7333-.7696 1.2339-1.0724 1.1636-.7141 2.5798-1.0815 4.244-1.10001l.0286.03001c1.5215-.0208 2.694.6379 3.5173 1.9714.7663 1.2225 1.1527 2.7917 1.1527 4.7075z"/><path d="m56.6165 21.4974c0 2.2926-.2174 3.8803-.6543 4.7654-.4391.8828-1.2735 1.5877-2.5052 2.1123-.999.4137-2.0792.6401-3.2406.6771l-.3228-1.2965c1.179-.1687 2.009-.3374 2.492-.5061.9485-.3374 1.5984-.8551 1.9562-1.5507.2877-.5662.4282-1.6455.4282-3.2424v-.5362c-1.3371.6402-2.7401.9568-4.2045.9568-.9639 0-1.8136-.3166-2.5447-.9568-.8212-.6956-1.2317-1.5784-1.2317-2.6484v-8.567l1.9562-.7049v8.6248c0 .9221.2833 1.6316.8475 2.1285.5643.4968 1.2976.7372 2.1934.7187.8958-.0208 1.8575-.3859 2.8784-1.1001v-10.0622h1.9563v11.1877z"/><path d="m64.2545 22.8224c-.2327.0208-.4478.0278-.6433.0278-1.1065 0-1.9694-.2774-2.5841-.8343-.6148-.557-.9222-1.3242-.9222-2.3041v-8.1095h-1.3393v-1.2942h1.3393v-3.43878l1.9541-.7326v4.17138h2.1977v1.2942h-2.1977v8.054c0 .7719.1976 1.3196.5906 1.6408.3381.2635.876.4137 1.6071.453v1.0723z"/><path d="m76.0979 22.6517h-1.9563v-7.9454c0-.8089-.18-1.5045-.5379-2.0869-.4128-.6586-.9858-.9868-1.7235-.9868-.8958 0-2.0178.4969-3.3636 1.493v9.5261h-1.9541v-18.99449l1.9563-.6494v8.65249c1.2492-.9567 2.6149-1.4374 4.0991-1.4374 1.0363 0 1.875.3674 2.5161 1.1.6433.7326.9661 1.6455.9661 2.734v8.5948z"/><path d="m86.4941 16.2405c0-1.2918-.2327-2.3595-.6982-3.2054-.5533-1.0284-1.4095-1.5715-2.571-1.6293-2.1451.1318-3.2143 1.7472-3.2143 4.8486 0 1.4213.2217 2.6092.6718 3.5613.5731 1.2133 1.4337 1.8142 2.582 1.7934 2.1539-.0185 3.2297-1.8073 3.2297-5.3686zm2.1429.0139c0 1.8396-.4479 3.3718-1.3393 4.5943-.9814 1.3705-2.3383 2.0569-4.0706 2.0569-1.7169 0-3.054-.6864-4.0179-2.0569-.876-1.2225-1.3108-2.7547-1.3108-4.5943 0-1.731.4721-3.1846 1.4184-4.3702.999-1.2572 2.3141-1.88811 3.9366-1.88811 1.6248 0 2.9465.63091 3.9653 1.88811.9462 1.1856 1.4183 2.6415 1.4183 4.3702z"/><path d="m99.8492 22.6514h-1.9563v-8.3961c0-.9221-.2635-1.6408-.7904-2.1585-.5269-.5153-1.2295-.7649-2.1034-.7464-.9287.0185-1.8135.3374-2.6522.9567v10.3443h-1.9563v-10.5985c1.1264-.862 2.1627-1.4259 3.1068-1.6894.8914-.2449 1.6796-.36741 2.358-.36741.4655 0 .9002.04621 1.3108.14101.7684.1872 1.3942.5338 1.875 1.0422.5379.5639.8036 1.2388.8036 2.0291v9.443z"/><path d="m15.1667 3.73478c-1.0056.00463-1.9672.09476-2.8125.25191-2.492.46221-2.94429 1.43284-2.94429 3.22159v2.36188h5.88629v.78804h-5.88629-2.20875c-1.71036 0-3.20994 1.0816-3.67759 3.1407-.54012 2.3596-.56427 3.834 0 6.2976.41935 1.835 1.41834 3.1407 3.12869 3.1407h2.02432v-2.831c0-2.0453 1.68182-3.8502 3.67762-3.8502h5.8797c1.6379 0 2.9443-1.419 2.9443-3.1476v-5.90012c0-1.68013-1.3459-2.93964-2.9443-3.22159-1.0121-.17795-2.0616-.25884-3.0672-.25191zm-3.1836 1.89737c.6082 0 1.1044.53154 1.1044 1.18325 0 .65172-.4962 1.17632-1.1044 1.17632-.6103 0-1.1044-.52692-1.1044-1.17632 0-.65171.4941-1.18325 1.1044-1.18325z"/><path d="m21.9118 10.3555v2.7524c0 2.1331-1.7192 3.9288-3.6776 3.9288h-5.8798c-1.6115 0-2.94424 1.4513-2.94424 3.1499v5.9001c0 1.6801 1.38764 2.667 2.94424 3.1477 1.8641.5777 3.6513.6817 5.8798 0 1.482-.453 2.9442-1.3612 2.9442-3.1477v-2.3619h-5.8819v-.788h5.8798 2.9442c1.7104 0 2.3493-1.2572 2.9443-3.1407.6148-1.9413.5884-3.8086 0-6.2976-.4238-1.7934-1.2295-3.1407-2.9443-3.1407h-2.2087zm-3.3066 14.9432c.6104 0 1.1044.5269 1.1044 1.1763 0 .654-.494 1.1832-1.1044 1.1832-.6081 0-1.1043-.5315-1.1043-1.1832-.0022-.6494.4962-1.1763 1.1043-1.1763z"/><path d="m103.66 8.47271h.343v-2.26482h.812v-.27039h-1.967v.27039h.812zm1.46 0h.292v-2.06838l.637 2.06838h.327l.663-2.06145v2.06145h.321v-2.53521h-.424l-.725 2.17007-.617-2.17007h-.472v2.53521"/></g></svg>