<svg fill="none" height="33" viewBox="0 0 111 33" width="111" xmlns="http://www.w3.org/2000/svg"><path d="m77.5677 24.6845v2.9332h5.0074c1.0276 0 2.7852-.7907 2.844-3.0223v-1.1357c0-1.896-1.4618-3.0222-2.844-3.0222h-2.499v-1.3633h4.9467v-2.9634h-4.7495c-1.2248 0-2.863 1.0769-2.863 3.0715v1.0276c0 1.9946 1.6192 3.0223 2.863 3.0223 3.447.0189-.8304 0 2.3606 0v1.4315zm-26.8494-.7205s2.6866-.2464 2.6866-3.9114c0-3.6745-3.2498-4.0196-3.2498-4.0196h-5.8567v11.5828h2.9426v-2.7948l2.5482 2.7948h4.3457zm-1.1357-2.37h-2.3397v-2.6468h2.3605s.6617.256.6617 1.3139c0 1.058-.6807 1.3329-.6807 1.3329zm11.0784-5.4795h-2.9825c-2.133 0-2.8535 2.0534-2.8535 3.0223v8.4828h2.9919v-2.025h2.8042v2.025h2.8934v-8.4828c0-2.4686-2.1141-3.0223-2.8535-3.0223zm-.0399 6.1905h-2.825v-2.8042s0-.6427.9385-.6427h1.0276c.8191 0 .84.6427.84.6427v2.8042zm4.2566-6.1905h3.1114v11.5051h-3.1114zm7.476 8.5321v-8.5321h-3.0905v11.5051h7.2788v-2.973zm-46.5111 2.9711h12.0965s-2.3112-11.1884 5.3525-15.7313c1.6685-.8589 6.9811-4.07829 15.6914 2.7455.2673-.237.5328-.4342.5328-.4342s-7.969-8.43349-16.8366-7.49497c-4.4633.42471-9.9446 4.73057-13.1641 10.41857-3.2194 5.6881-3.6744 10.4964-3.6744 10.4964zm0 0h12.0965s-2.3112-11.1884 5.3525-15.7313c1.6685-.8589 6.9811-4.07829 15.6914 2.7455.2673-.237.5328-.4342.5328-.4342s-7.969-8.43349-16.8366-7.49497c-4.4633.42471-9.9446 4.73057-13.1641 10.41857-3.2194 5.6881-3.6744 10.4964-3.6744 10.4964zm0 0h12.0965s-2.3112-11.1884 5.3525-15.7313c1.6685-.8589 6.9811-4.07829 15.6914 2.7455.2673-.237.5328-.4342.5328-.4342s-7.969-8.43349-16.8366-7.49497c-4.4727.42471-9.9636 4.73057-13.183 10.41857-3.21 5.6881-3.6536 10.4964-3.6536 10.4964zm25.2113-19.99729.0682-1.0959c-.1384-.07963-.5233-.27682-1.4903-.56312l-.0587 1.06746c.5043.17822.9973.37541 1.4808.59345zm-1.4524 3.43749-.0588 1.0276c.5044.019 1.0068.0796 1.5112.1972l.0682-1.0068c-.5009-.1095-1.0091-.1823-1.5206-.218zm-5.6691-5.06617h.1479l-.3052-.98782c-.474 0-.9575.03033-1.4713.08911l.2957.96697c.4437-.0493.8893-.06826 1.3329-.06826zm.7319 5.98377.3564 1.1168c.4276-.2252.8735-.4136 1.3329-.5631l-.3356-1.077c-.5233.1574-.9669.3356-1.3537.5233zm-6.9527-4.27546-.692-1.12623c-.3849.21804-.7793.44366-1.1945.70152l.711 1.13571c.3804-.25534.7727-.4926 1.1755-.711zm3.1398 7.30726.7413 1.1755c.256-.4057.5632-.7793.8988-1.1547l-.6921-1.1053c-.3424.3381-.6593.7013-.948 1.0864zm-2.2202 5.2349 1.2438 1.0466c.0587-.6428.1687-1.2742.3166-1.9055l-1.0959-.9291c-.2067.603-.3356 1.204-.4645 1.788zm-6.7062-7.713-1.0959-1.0068c-.3944.4057-.7793.8096-1.1263 1.2153l1.1756 1.077c.3261-.4437.6712-.8798 1.0466-1.2836zm-4.632 7.2579-1.7576-.6806c-.2958.7015-.6124 1.5111-.7698 1.9547l1.7576.6807c.2067-.5536.5233-1.3537.7698-1.9548zm11.1107 4.5827c.0303.8589.108 1.5604.1782 2.0534l1.8467.692c-.1565-.6987-.2818-1.4041-.3754-2.114z" fill="#1a2e44"/></svg>