<svg fill="none" height="34" viewBox="0 0 111 34" width="111" xmlns="http://www.w3.org/2000/svg"><path d="m14.749 31.7714c7.3755 0 13.3545-5.979 13.3545-13.3544 0-7.3755-5.979-13.3545-13.3545-13.3545-7.37547 0-13.35447 5.979-13.35447 13.3545 0 7.3754 5.979 13.3544 13.35447 13.3544z" fill="#1a2e44"/><path d="m20.5879 10.0022c-1.3563.0476-2.5413.7954-3.4218 1.8296-.9767 1.1341-1.6256 2.48-2.0937 3.8529-.8368-.686-1.4823-1.5737-2.8248-1.9609-1.0385-.2983-2.1279-.1756-3.13028.5713-.47525.3549-.80207.891-.95763 1.3948-.40341 1.3102.42292 2.4762.79874 2.8953l.82062.8782c.16936.1726.57605.6227.37775 1.2673-.21553.7017-1.06041 1.155-1.92765.8881-.38724-.1198-.94384-.4076-.81872-.813.05138-.1665.17031-.2916.23453-.4338.05851-.1237.08611-.216.10371-.2702.15841-.5176-.05804-1.1903-.61178-1.3611-.51711-.1579-1.04516-.0323-1.2502.6323-.2331.7568.12892 2.1274 2.06654 2.7254 2.27017.6979 4.19067-.539 4.46277-2.1508.1717-1.0094-.285-1.7601-1.1199-2.7254l-.6803-.7521c-.4124-.4124-.5537-1.1141-.1275-1.6531.3602-.4553.8725-.6494 1.7131-.4215 1.226.332 1.7726 1.1831 2.684 1.8696-.3762 1.2345-.6227 2.4737-.8448 3.586l-.1366.8277c-.6522 3.4186-1.1493 5.2953-2.4423 6.3728-.2602.186-.6332.4629-1.1941.4824-.29446.0095-.38913-.1932-.39388-.2817-.00666-.2064.16788-.3011.28348-.3939.1727-.0946.4339-.2507.4163-.7506-.0195-.5928-.5095-1.1056-1.21737-1.0814-.53138.0176-1.33963.5167-1.30918 1.432.03139.9438.91148 1.6521 2.23875 1.6065.7098-.0233 2.2939-.3121 3.8548-2.1679 1.8167-2.1279 2.3253-4.5669 2.7078-6.3518l.4262-2.3563c.2374.0281.4905.0476.7664.0538 2.263.0485 3.3948-1.1241 3.4124-1.9766.0109-.5162-.3388-1.0238-.8287-1.0124-.3502.01-.7907.2431-.8963.7274-.1032.4757.7202.9048.0766 1.322-.4572.2964-1.2769.5048-2.431.3354l.2103-1.1603c.4277-2.1997.9567-4.9056 2.9609-4.9708.1461-.0076.6808.0067.6931.3597.0034.1179-.0257.1484-.1636.4186-.1413.2103-.1941.3896-.1879.5961.02.5613.4467.9305 1.0646.9086.8264-.0271 1.0642-.8316 1.0509-1.2454-.0342-.9729-1.0589-1.58657-2.4143-1.5428z" fill="#fff"/><g fill="#1a2e44"><path d="m82.3657 14.6602c3.0798 0 5.1439 2.2249 5.1439 5.3028 0 2.9005-2.1046 5.3024-5.1439 5.3024-3.058 0-5.1626-2.4019-5.1626-5.3024 0-3.0779 2.0637-5.3028 5.1626-5.3028zm0 9.0981c2.185 0 3.1573-1.9866 3.1573-3.7953 0-1.9257-1.1717-3.7924-3.1573-3.7924-2.0057 0-3.1779 1.8667-3.1779 3.7924 0 1.8087.9738 3.7953 3.1779 3.7953z"/><path d="m76.9463 15.6041v-.7045h-2.6821v-.9629c0-1.3705.1993-2.4047 1.8068-2.4047.0295 0 .0609.0028.0918.0042.0033 0 .0024-.0052.0062-.0052.4462.0323.8182-.3306.843-.7769l.0323-.6117c-.3772-.06-.7754-.119-1.2511-.119-2.7606 0-3.3957 1.6089-3.3957 4.0722v.804h-2.3858v.7864c.0614.4076.4106.7221.8363.7221.0019 0 .0043.0019.0067.0019h1.5428v8.6196h1.0275.0033c.4282 0 .7774-.3225.8354-.7331v-7.8865h1.8677c.4396-.0147.793-.3663.8149-.8059z"/><path d="m52.0761 14.8994c-.0029 0-.0052.0024-.01.0024-.393 0-.774.2702-.9405.636l-2.5684 7.7438h-.04l-2.5123-7.74c-.1646-.3677-.5471-.6403-.9429-.6403-.0047 0-.0061-.0024-.0099-.0024h-1.3021l3.4361 9.4545c.1199.3382.3587.8549.3587 1.0723 0 .1998-.5566 2.5023-2.2259 2.5023-.0409 0-.0827-.0048-.1232-.0076-.4258-.0233-.7473.274-.8182.7321l-.0509.6465c.3377.0595.6765.1394 1.2721.1394 2.4623 0 3.1973-2.2459 3.8933-4.1916l3.7329-10.3484h-1.1488z"/><path d="m40.2086 16.9583c-1.5413-.7888-3.2287-1.3249-3.2582-2.9119.0048-1.6855 1.5537-2.1284 2.7468-2.127.0057-.0009.0105-.0009.0133-.0009.5186 0 .9329.0514 1.3378.1403.0052 0 .0042-.0066.0104-.0066.4282.0314.7873-.3031.8373-.7246l.0342-.6122c-.7825-.1941-1.6003-.2935-2.312-.2935-2.595.0161-4.5222 1.322-4.5284 3.8143.0029 2.1788 1.471 3.0232 3.0513 3.7882 1.549.745 3.2449 1.3596 3.2597 3.1583-.0086 1.8758-1.8192 2.567-3.067 2.5699-.7298-.0029-1.5218-.1842-2.1898-.3949-.4181-.069-.7611.3002-.8158.7887l-.0562.5452c.9177.2964 1.8582.5557 2.8044.5557h.0019.0086c2.9076-.0214 5.1673-1.1808 5.1763-4.1916-.0033-2.3225-1.4823-3.2982-3.0546-4.0974z"/><path d="m68.4456 25.029h.0024c.4029 0 .7393-.2835.8235-.6608v-5.8342c0-2.205-.9315-3.8738-3.5151-3.8738-.9134 0-2.4424.5175-3.1379 1.9671-.5357-1.3706-1.7078-1.9671-2.8786-1.9671-1.4904 0-2.5037.5361-3.2182 1.7087h-.04v-.6298c-.0057-.4638-.3811-.8382-.8454-.8382-.0042 0-.0061-.0024-.009-.0024h-.8929v10.13h1.0104.0024c.4681 0 .8468-.3801.8468-.8473 0-.0128.0043-.0176.0085-.0261v-4.2316c0-1.8862.7541-3.7529 2.6603-3.7529 1.5085 0 1.8087 1.5684 1.8087 2.8201v6.0373h1.0242.0028c.4425 0 .7988-.3401.8383-.7721v-4.3324c0-1.8862.7554-3.7529 2.6616-3.7529 1.5095 0 1.8078 1.5684 1.8078 2.8201v6.0373h1.0394z"/><path d="m97.297 25.029h.0024c.4553 0 .8221-.3597.8435-.8102v-5.2082c0-2.7206-1.1732-4.3504-3.7949-4.3504-1.41 0-2.7596.6959-3.3172 1.8486h-.039v-.7569c0-.0009-.0019-.0009-.0019-.0028 0-.4696-.3801-.8482-.8463-.8482-.0052 0-.0062-.0024-.0095-.0024h-.9505v10.13h1.0261.0019c.4444 0 .8045-.3458.8387-.7816v-3.9062c0-2.4623.9543-4.1701 3.0794-4.1701 1.6303.0984 2.1441 1.2497 2.1441 3.614v5.2434h1.0232z"/><path d="m107.347 14.8994c-.005 0-.007.0024-.011.0024-.393 0-.775.2702-.941.636l-2.567 7.7438h-.042l-2.513-7.74c-.165-.3677-.547-.6403-.942-.6403-.004 0-.006-.0024-.009-.0024h-1.3025l3.4365 9.4545c.119.3382.359.8549.359 1.0723 0 .1998-.557 2.5023-2.227 2.5023-.04 0-.081-.0048-.123-.0076-.426-.0233-.7457.274-.8189.7321l-.05.6465c.3373.0595.6769.1394 1.2729.1394 2.462 0 3.197-2.2459 3.893-4.1916l3.734-10.3484h-1.149z"/></g></svg>